<?xml version="1.0" encoding="UTF-8"?>
<svg version="1.1" viewBox="0 0 1860 1280" width="465" height="320" xmlns="http://www.w3.org/2000/svg">
<path transform="translate(1068,9)" d="m0 0h53l47 2 41 3 43 5 37 6 36 8 28 8 27 9 16 8 6 7 2 7-2 10-6 15-28 56-1 4 11 3 25 9 28 11 28 12 34 16 23 12 24 14 16 10 19 13 19 14 17 14 14 12 16 15 11 11 7 8 11 12 21 27 16 24 9 15 1 3-5-2-18-14-16-12-34-25-14-9-31-15-34-15-34-14-34-12-36-11-74-21-31-9-14-5-11-7-3-1 1 10 3 5 7 4 19 6 69 17 59 16 43 13 25 9 26 11 29 14 25 14 21 14 14 10 16 12 13 11 8 7 14 14 10 13 12 20 9 19 11 30 9 31 5 24 3 24v40l-2 18-4 22-5 20-10 29-9 20-12 25-8 17 6 1 1 3-9 17-9 16-13 24-14 24-10 17-8 12-11 16-11 14-13 16-13 15-12 13-7 8-25 25-8 7-12 11-11 9-10 9-14 11-21 16-20 14-16 11-24 15-28 17-28 15-29 15-25 12-38 17-32 13-35 13-36 12-33 10-48 12-41 8-49 8-71 9-64 7-49 4-40 2h-35l-61-3-45-4-33-4-41-7-42-9-26-7-16-6-18-10-11-8-4-5v-12l5-12 12-23 9-17 10-20-12-5-42-16-29-12-33-15-26-13-23-13-17-10-16-10-19-13-19-14-16-13-14-12-7-7-8-7-16-16-7-8-13-15-11-14-13-18-13-21-7-13 1-6v-8l-13-25-10-18-13-27-7-19-6-25-3-21v-53l3-28 4-22 6-22 9-26 13-30 7-16 2-7-1-9 15-31 10-19 6-10 6-11 11-18 12-18 12-17 10-13 8-10 9-11 13-15 12-13 4-5 7-6 5-6 8-7 13-13 8-7 11-10 11-9 13-11 30-23 18-13 10-7 15-10 24-15 24-14 29-16 21-11 28-13 29-13 44-18 48-17 45-14 41-11 48-11 43-8 57-9 39-5 27-2 74-3zm-123 158-56 2-57 4-48 5-59 8-41 7-45 9-48 11-44 11-26 6-25 8-20 7-21 8-30 13-36 17-28 14-16 10-11 7 3 1 58-29 30-13 36-14 31-11 39-12 60-15 39-8 36-6 85-13 53-7 41-4 43-3 51-2h97l62 3 36 3 44 5 47 7 81 14 23 4h6l5-12-3-2-54-10-44-7-56-7-55-5-50-3-24-1zm437 281-25 4-18 5-18 8-14 9-10 9-8 8-9 13-7 14-4 13-2 10v22l4 17 6 15 7 11 7 9 5 6 11 9 12 9 24 13 34 17 19 9 19 10 15 9 10 8 8 11 4 11v20l-5 15-8 10-10 7-8 4-17 5-12 2h-25l-18-3-16-5-21-9-27-14-12-7h-2v66l4 7 5 4 23 7 26 6 24 4 20 2h31l24-3 18-4 17-6 19-10 10-7 11-9 10-10 10-14 7-14 4-14 2-14v-27l-3-16-4-12-7-14-10-13-12-12-14-10-15-9-52-26-19-10-22-12-15-10-7-6-5-10v-17l5-12 8-10 7-6 10-6 12-4 5-1h22l19 4 19 7 20 9 33 16h2v-80l-4-1-36-1-27-3-31-3zm-1034 4 2 10 7 23 3 15 1 8 1 33 1 75v139l-2 29-4 19-5 15-10 19v1h277l1-1v-78l-5 2-16 9-8 4-12 3-30 3-19 1h-44l-16-2-7-4-7-7-4-8-1-6-1-86h62l5-1 2 1 19 1 18 3 18 6 9 5h2v-83l-6 2-11 5-18 5-13 2-17 1h-69v-109l4 1h87l20 2 17 4 15 6 14 8 4 2v-77zm336 41 1 7 8 30 2 15 1 12 1 67v144l-2 22-3 15-4 12-8 16-2 5h115l-2-5-8-19-5-19-3-19-1-100-1-5 3 1h44l7-1 26 2 19 4 15 6 6 4h3v-75l-5 1-17 7-18 4-9 1h-72v-83h80l21 2 20 5 16 7 9 6h2v-69zm289 0 3 10 7 24 2 11 1 15 1 48v170l-2 23-5 19-6 13-5 9v3h243l1-1v-69l-5 2-13 8-11 5-15 3-23 2h-42l-20-2-8-5-6-8-4-10-1-10-1-81h51l6-1 23 2 20 4 15 6 6 3 2-1-1-73-9 3-13 5-18 4-10 1h-71v-84l3 1h80l19 2 17 4 16 7 11 7h2v-69zm-789 399 3 5 12 12 19 13 21 12 24 13 30 15 30 13 42 16 52 17 44 12 59 15 9 4 8 6 5 1v-7l-4-8-8-5-38-10-57-14-52-14-35-11-32-12-23-10-25-12-26-14-19-12-19-13-13-10-4-2zm1334 85-80 34-32 13-29 11-40 13-40 11-38 9-40 8-48 8-68 9-63 7-48 4-46 2h-125l-55-3-47-4-48-6-44-7-68-13-19-4-5 1-4 9 1 5 25 5 33 6 52 8 50 6 42 4 43 3 52 2h94l63-3 41-3 69-8 65-9 45-8 51-10 29-7 35-8 24-6 27-9 45-18 30-13 24-11 32-15 11-7 7-5z" fill="#0071AE"/>
<path transform="translate(1728,778)" d="m0 0 8 3-2 6-15 27-14 26-14 24-10 17-8 12-11 16-11 14-13 16-13 15-12 13-7 8-25 25-8 7-12 11-11 9-10 9-14 11-21 16-20 14-16 11-24 15-28 17-28 15-29 15-25 12-38 17-32 13-35 13-36 12-33 10-48 12-41 8-49 8-71 9-64 7-49 4-40 2h-35l-61-3-45-4-33-4-41-7-42-9-26-7-16-6-18-10-11-8-4-5v-12l5-12 12-23 9-17 10-20-12-5-42-16-29-12-33-15-26-13-23-13-17-10-16-10-19-13-19-14-16-13-14-12-7-7-8-7-16-16-7-8-13-15-11-14-13-18-13-21-7-13 1-6 1-5 4 2 6 5 7 8 14 15 24 24 19 13 21 12 24 13 30 15 30 13 42 16 52 17 44 12 59 15 9 4 8 6 3 2v10l-3 7-2 10-3 6v4l25 5 33 6 52 8 50 6 42 4 43 3 52 2h94l63-3 41-3 69-8 65-9 45-8 51-10 29-7 35-8 24-6 27-9 45-18 30-13 24-11 32-15 11-7 6-4v-2l8-3 22-13 11-7 32-24 13-10 16-13 15-13 17-17 7-8 9-11 14-18 13-18 14-19 12-17z" fill="#B3945B"/>
<path transform="translate(1068,9)" d="m0 0h53l47 2 41 3 43 5 37 6 36 8 28 8 27 9 16 8 6 7 2 7-2 10-6 15-28 56-1 4 11 3 25 9 28 11 28 12 34 16 23 12 24 14 16 10 19 13 19 14 17 14 14 12 16 15 11 11 7 8 11 12 21 27 16 24 9 15 1 3-5-2-18-14-16-12-34-25-14-9-31-15-34-15-34-14-34-12-36-11-74-21-31-9-14-5-11-7-3-1v-8l3-5 2-8 1-3-2-2h3l4-12-13-3-43-8-44-7-56-7-55-5-50-3-24-1h-109l-56 2-57 4-48 5-59 8-41 7-45 9-48 11-44 11-26 6-25 8-20 7-21 8-30 13-36 17-28 14-16 10-10 6v2l-9 5-16 12-13 9-17 12-32 24-11 10-8 7-19 19-9 11-8 9-8 10-10 13-13 18-17 25-7 9-2 1-2-3 1-6 14-29 10-19 6-10 6-11 11-18 12-18 12-17 10-13 8-10 9-11 13-15 12-13 4-5 7-6 5-6 8-7 13-13 8-7 11-10 11-9 13-11 30-23 18-13 10-7 15-10 24-15 24-14 29-16 21-11 28-13 29-13 44-18 48-17 45-14 41-11 48-11 43-8 57-9 39-5 27-2 74-3z" fill="#B3945B"/>
<path transform="translate(945,149)" d="m0 0h87l54 2 70 5 50 5 56 7 50 8 36 7 3 3-9 16h-3l-13-3-43-8-44-7-56-7-55-5-50-3-24-1h-109l-56 2-57 4-48 5-59 8-41 7-45 9-48 11-44 11h-7l3-3 21-8 18-6 52-13 48-11 46-9 59-10 57-8 36-4 45-3z" fill="#EC1321"/>
<path transform="translate(1243,1079)" d="m0 0h6v3l-7 3-24 7-46 11-47 10-32 6-46 7-49 5-46 3-24 1h-103l-65-4-60-6-60-7-21-3-17-2-61-8-20-4-2-1 1-5 9-12 61 11 52 8 50 6 42 4 43 3 52 2h94l63-3 41-3 69-8 65-9 45-8z" fill="#EC1321"/>
<path transform="translate(211,918)" d="m0 0 5 2 23 13 24 13 30 15 30 13 42 16 52 17 44 12 59 15 9 4 8 6 3 2v10l-2 4-5-2-8-5-13-5-34-9-49-14-25-8-35-12-31-12-32-14-19-9-16-9-12-6-23-14-11-9-5-5-9-8z" fill="#EB1321"/>
<path transform="translate(1333,225)" d="m0 0 4 2 5 4 16 6 55 15 42 13 41 14 26 10 26 11 30 14 19 10 14 9 11 8 7 4 2 4-5-1-27-13-34-15-34-14-34-12-36-11-74-21-31-9-14-5-11-7-3-1v-8z" fill="#EB1421"/>
<path transform="translate(186,433)" d="m0 0 1 4-1 3-2 1-3 6h-2l-2 5-10 13-3 4-2 6-17 25-7 9-2 1-2-3 1-6 14-29 5-9 6-5 20-20h3v-2h2z" fill="#BF915B"/>
<path transform="translate(417,266)" d="m0 0h3l-1 4-28 13-30 15-16 10-7 4h-6l-1 4-9 6-14 10-13 9-4 1h-4l5-6h2l1-2 5-2v-2l5-2v-2l15-10 9-7 10-5h2v-2l16-8 7-3 19-10 5-2 15-7 5-2 6-1z" fill="#C0915B"/>
<path transform="translate(1578,940)" d="m0 0h5l-1 4-9 6-5 4h-2l-1 3-9 5-2 3-1-1-4 5-4 2-5 2-4 3-5 2-7 5h-2l-1 3-7 2-1 2-6 2-8 5-12 4-4 2-2-1 1-3 21-10 11-7 6-4v-2l8-3 22-13 11-7 16-12z" fill="#BF945F"/>
<path transform="translate(1633,349)" d="m0 0 6 1 9 6 11 8 9 7 3 3 5 3 9 7 9 6 10 5 5 2 8 14-2 1-16-12-17-13-19-14-12-9-17-12z" fill="#BF915B"/>
<path transform="translate(284,342)" d="m0 0 2 4-1 3-11 7-3 1v2l-5 2v2l-11 8-10 8-8 4h-2l1-4 5-6 12-9 10-8 9-5 3-3h2v-2z" fill="#C0915B"/>
<path transform="translate(1728,778)" d="m0 0 8 3v2l-3 3-8 14-7 9-9 3v3h-2v3l-3 1-2-2 15-21 3-7z" fill="#C0925C"/>
<path transform="translate(144,854)" d="m0 0 4 2 6 5 7 8 5 6 4 8-2 1-9-6h-10l-7-13 1-6z" fill="#BE915B"/>
<path transform="translate(200,945)" d="m0 0 4 2 5 4 5 3 6 7 3 1v2l4 1 5 5 7 6 4 5 5 5 1 2-1 4-4-2-10-9-15-14-13-13-6-7z" fill="#BF915B"/>
<path transform="translate(231,384)" d="m0 0h3v2l-2 2-2 4-6 5-7 8h-2l-2 4-12 13-4 5-5 2-1-3 8-12 5-5h2l2-4 13-13 8-6h2z" fill="#C1915B"/>
<path transform="translate(529,1055)" d="m0 0 4 2 4 3-2 13-2 4-4 1-4-5 1-8 2-4z" fill="#C0915C"/>
<path transform="translate(1338,208)" d="m0 0 7 5v7h-2l-2 5-2 2-1 2-3-3h-3l1-7 1-3-2-2h3l1-5z" fill="#C19561"/>
<path transform="translate(539,223)" d="m0 0 2 1 1 2-28 7-16 5-4-1 4-1v-2l9-3 19-7h11z" fill="#BE915B"/>
<path transform="translate(1658,874)" d="m0 0h2l-1 4-7 9-6 5-5 6-6 4-3-1v-2l8-7z" fill="#C1915B"/>
<path transform="translate(1295,1067)" d="m0 0h6l-3 2-18 5-19 5h-6l2-3 29-7z" fill="#E3292B"/>
<path transform="translate(190,901)" d="m0 0 4 2 9 8 9 6 2 5-5-2-11-8-5-4-3-5z" fill="#BE915B"/>
<path transform="translate(332,312)" d="m0 0h5l-2 4-9 5-16 12-10 7-2-1 10-8 14-10 9-6z" fill="#B3955C"/>
<path transform="translate(1625,905)" d="m0 0 2 1-5 6h-2v3h-2v2l-6 3h-2l2-4 11-9z" fill="#C1915B"/>
<path transform="translate(1470,1006)" d="m0 0 3 1-4 1v2l-4 2-6 2-4 1 1-4 9-4z" fill="#BF915B"/>
<path transform="translate(1374,1045)" d="m0 0 6 1-3 2-7 2v2h-7v-3z" fill="#BE915B"/>
<path transform="translate(1295,1067)" d="m0 0h6l-3 2-15 4-5-1v-1z" fill="#DD3832"/>
<path transform="translate(179,449)" d="m0 0v3l-10 13-5 7-1-3 10-13z" fill="#B4975F"/>
<path transform="translate(332,312)" d="m0 0h5l-2 4-9 5-5 4-2-1 8-7 4-2z" fill="#B69A64"/>
<path transform="translate(1342,1056)" d="m0 0 4 1-1 2-10 2-2-2z" fill="#BD915B"/>
<path transform="translate(1422,1026)" d="m0 0h5l-1 3-7 2-3 1 1-4z" fill="#BE915B"/>
<path transform="translate(1488,996)" d="m0 0 3 1-6 6-4-1 1-3z" fill="#BC925B"/>
<path transform="translate(1253,1077)" d="m0 0 3 1 1 2h-4v2h-4l-1-4z" fill="#BE915B"/>
</svg>
